<?xml version="1.0" standalone="no"?>
<!DOCTYPE svg PUBLIC "-//W3C//DTD SVG 20010904//EN"
 "http://www.w3.org/TR/2001/REC-SVG-20010904/DTD/svg10.dtd">
<svg version="1.0" xmlns="http://www.w3.org/2000/svg"
 width="141.000000pt" height="35.000000pt" viewBox="0 1 91.000000 25.000000"
 preserveAspectRatio="xMidYMid meet">
<metadata>
Created by potrace 1.16, written by Peter Selinger 2001-2019
</metadata>
<g transform="translate(0.000000,35.000000) scale(0.011017,-0.014000)"
fill="#212E52" stroke="none">
<path d="M0 1250 l0 -1250 1770 0 1770 0 0 1250 0 1250 -1770 0 -1770 0 0
-1250z m2660 985 l0 -65 -140 0 -140 0 0 65 0 65 140 0 140 0 0 -65z m-587
-174 l302 -230 3 140 3 139 139 0 140 0 0 -247 0 -248 290 -220 c159 -121 290
-223 290 -227 0 -5 -218 -8 -484 -8 l-484 0 -61 45 c-34 25 -147 111 -251 190
-105 80 -194 145 -200 145 -6 0 -162 -70 -348 -156 -439 -204 -469 -217 -457
-205 40 40 803 610 812 606 6 -2 142 -103 302 -225 l290 -220 165 2 166 3
-233 176 c-127 97 -336 256 -464 352 l-231 176 -699 -415 c-384 -229 -714
-425 -733 -436 -20 -12 -29 -15 -20 -6 27 28 1442 1098 1452 1098 5 0 145
-103 311 -229z m-343 -921 l0 -100 -95 0 c-108 0 -110 2 -76 75 28 60 106 124
154 125 15 0 17 -11 17 -100z m156 65 c48 -37 84 -88 91 -129 l6 -36 -97 0
-96 0 0 101 0 102 32 -7 c17 -3 46 -18 64 -31z m-156 -315 l0 -100 -95 0 -95
0 0 100 0 100 95 0 95 0 0 -100z m258 -2 l3 -98 -101 0 -100 0 0 100 0 101 98
-3 97 -3 3 -97z m-1625 -376 c13 -14 16 -42 16 -149 0 -160 -1 -163 -95 -163
l-64 0 0 165 0 165 63 0 c49 0 68 -4 80 -18z m629 -49 c3 -61 5 -68 25 -71 21
-3 22 1 25 65 3 66 4 68 31 71 l27 3 0 -166 0 -166 -27 3 c-27 3 -28 5 -31 71
-3 64 -4 68 -25 65 -20 -3 -22 -10 -25 -70 -3 -65 -4 -68 -27 -68 l-25 0 0
165 0 165 25 0 c23 0 24 -3 27 -67z m1258 47 c12 -12 20 -33 20 -55 0 -32 -2
-35 -30 -35 -25 0 -30 4 -30 25 0 20 -5 25 -25 25 -22 0 -25 -4 -25 -35 0 -32
3 -35 43 -46 62 -18 67 -25 67 -90 0 -75 -20 -99 -83 -99 -58 0 -79 17 -81 66
-1 36 1 39 27 42 23 3 27 0 27 -22 0 -21 5 -26 25 -26 22 0 25 4 25 34 0 31
-3 34 -45 46 -61 17 -68 29 -63 101 5 73 21 89 85 89 30 0 49 -6 63 -20z
m-2070 -166 l0 -145 -27 3 -28 3 -3 129 c-1 72 0 136 2 143 3 7 17 13 31 13
l25 0 0 -146z m298 29 c3 -112 3 -113 27 -113 24 0 24 1 27 113 l3 112 25 0
25 0 0 -128 c0 -147 -5 -157 -82 -157 -73 0 -83 18 -83 158 0 65 3 122 7 126
4 4 16 6 28 4 19 -3 20 -11 23 -115z m205 67 c12 -27 25 -50 28 -50 4 0 16 23
27 50 17 42 25 50 46 50 15 0 26 -5 26 -11 0 -6 -16 -47 -35 -90 -26 -60 -35
-94 -35 -135 0 -54 0 -55 -27 -52 -27 3 -28 6 -34 68 -3 43 -16 89 -37 133
-18 38 -32 73 -32 78 0 5 12 9 26 9 21 0 29 -9 47 -50z m595 34 c21 -14 22
-23 22 -129 0 -90 -3 -117 -16 -129 -20 -21 -93 -21 -122 0 -21 14 -22 23 -22
129 0 106 1 115 22 129 12 9 38 16 58 16 20 0 46 -7 58 -16z m158 -74 c12 -47
23 -83 24 -80 1 3 11 41 23 85 21 78 23 80 55 83 l32 3 0 -145 0 -146 -25 0
c-25 0 -25 1 -26 83 l-1 82 -20 -83 c-18 -74 -22 -83 -41 -80 -18 2 -25 15
-38 73 l-16 70 -4 -70 c-4 -67 -5 -70 -29 -70 l-25 0 -3 129 c-1 72 0 136 3
144 3 8 17 12 37 10 31 -3 33 -5 54 -88z m339 60 c0 -23 -4 -25 -52 -28 -51
-3 -53 -4 -53 -33 0 -27 2 -29 41 -29 38 0 40 -1 37 -27 -3 -24 -8 -28 -40
-31 -32 -3 -38 -7 -38 -27 0 -22 5 -24 53 -27 48 -3 52 -5 52 -28 0 -25 -1
-25 -80 -25 l-80 0 -3 129 c-1 72 0 136 3 143 3 10 24 13 82 11 76 -3 78 -4
78 -28z m169 17 c10 -7 18 -28 19 -47 2 -31 -1 -35 -25 -38 -23 -3 -28 1 -28
17 0 16 -6 21 -25 21 -20 0 -25 -5 -25 -24 0 -19 8 -26 45 -36 60 -17 69 -30
63 -92 -6 -61 -24 -78 -85 -78 -53 0 -86 28 -81 68 4 35 47 45 55 13 4 -14 13
-21 30 -21 20 0 24 4 21 26 -2 21 -12 29 -53 42 l-50 17 -3 52 c-2 42 1 56 17
72 24 24 97 29 125 8z m420 -4 c2 -10 8 -49 12 -88 l7 -70 21 85 c18 71 24 85
41 85 17 0 23 -14 41 -85 l20 -85 8 60 c12 108 15 115 42 115 29 0 29 -8 6
-170 l-17 -115 -30 0 c-29 0 -31 3 -47 70 -10 38 -19 74 -21 79 -2 6 -12 -26
-23 -70 -18 -77 -20 -79 -49 -79 l-30 0 -17 115 c-23 163 -23 170 6 170 15 0
27 -7 30 -17z m301 -128 l0 -140 -27 -3 -28 -3 0 146 0 146 28 -3 27 -3 0
-140z m203 113 c3 -28 2 -28 -52 -28 l-56 0 0 -35 c0 -34 1 -35 40 -35 36 0
40 -2 40 -25 0 -22 -4 -25 -40 -25 l-40 0 0 -56 c0 -54 0 -55 -27 -52 l-28 3
-3 129 c-1 72 0 136 3 143 3 10 24 13 82 11 77 -3 78 -3 81 -30z m192 2 c0
-25 -4 -30 -25 -30 l-25 0 0 -115 0 -115 -30 0 -30 0 0 115 0 115 -25 0 c-21
0 -25 5 -25 30 l0 30 80 0 80 0 0 -30z m90 -84 l0 -115 43 -3 c37 -3 42 -6 42
-28 0 -24 -3 -25 -72 -28 l-73 -3 0 139 c0 76 3 142 7 145 3 4 17 7 30 7 23 0
23 -1 23 -114z m136 62 l27 -53 24 53 c20 42 29 52 49 52 32 0 31 -13 -11
-104 -26 -58 -35 -91 -35 -132 0 -54 0 -55 -27 -52 -27 3 -28 6 -33 68 -4 43
-17 88 -38 134 -18 38 -32 73 -32 77 0 5 11 9 25 9 20 0 30 -10 51 -52z"/>
</g>
</svg>
